<svg width="73" height="73" viewBox="0 0 73 73" fill="none" xmlns="http://www.w3.org/2000/svg">
<g clip-path="url(#clip0_391_240)">
<g filter="url(#filter0_d_391_240)">
<circle cx="36.5" cy="36.4424" r="36" fill="#E3B873"/>
</g>
<path d="M36.8401 43.7208C36.4619 43.7208 36.1531 44.02 36.1531 44.3918V45.7164C36.1531 46.0882 36.4619 46.3874 36.8401 46.3874C37.2183 46.3874 37.527 46.0882 37.527 45.7164V44.3918C37.527 44.02 37.2183 43.7208 36.8401 43.7208Z" fill="white" stroke="white" stroke-width="0.1"/>
<path d="M53.5581 34.4429L53.5581 34.4429C53.1069 32.285 52.0951 30.251 50.6321 28.5603C49.2237 26.9327 47.4214 25.6514 45.4118 24.8438C45.0828 23.5078 44.3927 22.1302 43.0386 21.0928C41.7205 20.083 40.3931 19.8884 40.3338 19.88L40.3338 19.88C40.1374 19.8527 39.9377 19.9097 39.7872 20.037C39.6366 20.1643 39.5498 20.3493 39.5498 20.5443V23.8479H37.3254C36.736 21.9338 34.9142 20.5358 32.7634 20.5358C30.5652 20.5358 28.7096 21.9957 28.1632 23.9748C25.0152 24.4006 22.1197 25.8913 19.9692 28.2048L20.0017 28.2349L19.9692 28.2048C17.7 30.6463 16.45 33.8071 16.45 37.1049C16.45 44.4946 20.3839 50.5048 21.5891 52.1703C21.9705 52.6974 22.5945 53.0116 23.2582 53.0116H25.9692C27.0961 53.0116 28.015 52.1175 28.015 51.0158V50.2141C28.6849 50.3118 29.3649 50.3619 30.0457 50.3619H36.1528V51.0158C36.1528 52.1175 37.0717 53.0116 38.1986 53.0116H41.1765C42.134 53.0116 42.9756 52.3492 43.1767 51.4342L43.4969 49.9777C47.673 48.9761 51.0324 46.1196 52.6959 42.413H55.1837C55.9359 42.413 56.55 41.8161 56.55 41.0796V35.7802C56.55 35.4235 56.4075 35.0883 56.1493 34.8366C55.8912 34.585 55.5482 34.4466 55.1838 34.4466H55.1837H55.1837H55.1837H55.1836H55.1836H55.1836H55.1835L53.5592 34.4468C53.5587 34.4455 53.5584 34.4442 53.5581 34.4429ZM55.1762 41.0294H55.1761V41.0709H53.2111C53.5469 40.0273 53.7538 38.9314 53.8138 37.8021C53.8337 37.4308 53.5411 37.1163 53.1633 37.0972C52.7857 37.0785 52.4615 37.3612 52.4418 37.7325C52.1746 42.7551 48.6861 47.0487 43.8218 48.4989L44.6936 44.5326C44.7736 44.169 44.5358 43.8129 44.1656 43.7356C43.7961 43.6581 43.4301 43.8878 43.3503 44.2509L41.8334 51.1524C41.7678 51.451 41.4919 51.6695 41.1765 51.6695H38.1984C37.8268 51.6695 37.5266 51.375 37.5266 51.0157V48.366C37.5266 47.9942 37.2178 47.6949 36.8396 47.6949C36.4614 47.6949 36.1527 47.9942 36.1527 48.366V49.0198H30.0455C29.3637 49.0198 28.6831 48.9638 28.0148 48.855V44.3915C28.0148 44.0197 27.7061 43.7205 27.3279 43.7205C26.9497 43.7205 26.6409 44.0197 26.6409 44.3915V51.0158C26.6409 51.375 26.3407 51.6696 25.9691 51.6696H23.2582C23.0355 51.6696 22.8366 51.5695 22.7111 51.3958L22.7111 51.3958C21.5641 49.8106 17.8239 44.0967 17.8239 37.1049C17.8239 34.1415 18.9469 31.3011 20.9864 29.107C22.8401 27.1126 25.3092 25.7984 28.0037 25.3562C28.0187 25.7442 28.0834 26.1277 28.195 26.4975H28.0074C27.6292 26.4975 27.3205 26.7967 27.3205 27.1685C27.3205 27.5403 27.6292 27.8396 28.0074 27.8396H37.5191C37.8974 27.8396 38.2061 27.5403 38.2061 27.1685C38.2061 26.7967 37.8974 26.4975 37.5191 26.4975H37.3315C37.4592 26.075 37.5258 25.6345 37.5266 25.1899H39.5498V26.5061C39.5498 26.8779 39.8585 27.1771 40.2367 27.1771C40.6149 27.1771 40.9237 26.8779 40.9237 26.5061V21.4321C41.5183 21.6613 42.343 22.1097 43.0288 22.9652C43.7404 23.8527 44.3056 25.1821 44.3056 27.1686C44.3056 27.5404 44.6144 27.8397 44.9926 27.8397C45.3708 27.8397 45.6795 27.5404 45.6795 27.1686C45.6795 26.9307 45.6716 26.6809 45.6536 26.423C47.1527 27.1479 48.4978 28.173 49.5829 29.4269C50.8977 30.9463 51.8068 32.7737 52.212 34.7115C52.3426 35.3364 52.9049 35.789 53.5487 35.7889L55.1762 35.7888V41.0294ZM32.7633 21.8779C34.6334 21.8779 36.1527 23.3611 36.1527 25.1815C36.1527 25.6363 36.0552 26.0846 35.871 26.4977H29.6555C29.4714 26.0844 29.3737 25.6363 29.3737 25.1815C29.3737 23.361 30.8931 21.8779 32.7633 21.8779Z" fill="white" stroke="white" stroke-width="0.1"/>
<path d="M44.4116 34.883L44.4116 34.883C44.815 33.8282 45.8808 33.1219 47.0621 33.1219C48.2433 33.1219 49.3093 33.8283 49.7125 34.883L44.4116 34.883ZM44.4116 34.883C44.2784 35.2313 44.4605 35.6176 44.8155 35.7466M44.4116 34.883L44.8155 35.7466M44.8155 35.7466C45.17 35.8756 45.5657 35.7002 45.6986 35.3526L44.8155 35.7466ZM45.6986 35.3526C45.9011 34.823 46.4479 34.4639 47.062 34.4639C47.6761 34.4639 48.223 34.823 48.4255 35.3526C48.5289 35.623 48.7913 35.7889 49.0691 35.7889C49.1488 35.7889 49.2297 35.7753 49.3086 35.7466C49.3086 35.7466 49.3086 35.7466 49.3086 35.7466L49.2915 35.6996L45.6986 35.3526Z" fill="white" stroke="white" stroke-width="0.1"/>
<path d="M35.7118 37.5182C35.0604 37.0764 34.2203 36.8057 33.4504 36.5934V33.5145C34.0453 33.5916 34.5486 33.7639 34.9049 33.9767C35.2761 34.1983 35.4736 34.4546 35.4736 34.6831C35.4736 35.0549 35.7823 35.3541 36.1605 35.3541C36.5387 35.3541 36.8475 35.0549 36.8475 34.6831C36.8475 34.0275 36.4734 33.4414 35.8591 32.9982C35.2543 32.5618 34.413 32.2607 33.4504 32.1629V32.1369C33.4504 31.7651 33.1417 31.4659 32.7635 31.4659C32.3853 31.4659 32.0765 31.7651 32.0765 32.1369V32.1629C31.114 32.2607 30.2727 32.5618 29.6679 32.9982C29.0536 33.4414 28.6795 34.0275 28.6795 34.6831C28.6795 35.6106 29.151 36.2415 29.8151 36.6919C30.4666 37.1337 31.3066 37.4044 32.0765 37.6167V40.6957C31.4816 40.6185 30.9783 40.4462 30.622 40.2334C30.2509 40.0118 30.0534 39.7555 30.0534 39.527C30.0534 39.1552 29.7447 38.856 29.3664 38.856C28.9882 38.856 28.6795 39.1552 28.6795 39.527C28.6795 40.1826 29.0536 40.7687 29.6679 41.2119C30.2727 41.6483 31.114 41.9494 32.0765 42.0472V42.0732C32.0765 42.445 32.3853 42.7442 32.7635 42.7442C33.1417 42.7442 33.4504 42.445 33.4504 42.0732V42.0472C34.413 41.9494 35.2543 41.6483 35.8591 41.2119C36.4734 40.7687 36.8475 40.1826 36.8475 39.527C36.8475 38.5995 36.3759 37.9686 35.7118 37.5182ZM32.0765 33.5145V36.2106C31.3288 35.9783 30.8251 35.7571 30.5069 35.5158C30.183 35.27 30.0534 35.0052 30.0534 34.6831C30.0534 34.4546 30.2509 34.1983 30.622 33.9767C30.9783 33.7639 31.4816 33.5916 32.0765 33.5145ZM34.9049 40.2335C34.5486 40.4463 34.0453 40.6186 33.4504 40.6957V37.9996C34.1981 38.2318 34.7019 38.453 35.0201 38.6944C35.344 38.9401 35.4736 39.205 35.4736 39.5271C35.4736 39.7556 35.2761 40.0119 34.9049 40.2335Z" fill="white" stroke="white" stroke-width="0.1"/>
</g>
<defs>
<filter id="filter0_d_391_240" x="-19.5" y="-9.55762" width="112" height="112" filterUnits="userSpaceOnUse" color-interpolation-filters="sRGB">
<feFlood flood-opacity="0" result="BackgroundImageFix"/>
<feColorMatrix in="SourceAlpha" type="matrix" values="0 0 0 0 0 0 0 0 0 0 0 0 0 0 0 0 0 0 127 0" result="hardAlpha"/>
<feOffset dy="10"/>
<feGaussianBlur stdDeviation="10"/>
<feColorMatrix type="matrix" values="0 0 0 0 0.929412 0 0 0 0 0.752941 0 0 0 0 0.470588 0 0 0 0.2 0"/>
<feBlend mode="normal" in2="BackgroundImageFix" result="effect1_dropShadow_391_240"/>
<feBlend mode="normal" in="SourceGraphic" in2="effect1_dropShadow_391_240" result="shape"/>
</filter>
<clipPath id="clip0_391_240">
<rect width="72" height="72" fill="white" transform="translate(0.5 0.442383)"/>
</clipPath>
</defs>
</svg>
