<svg width="114" height="28" viewBox="0 0 114 28" fill="none" xmlns="http://www.w3.org/2000/svg">
<rect x="0.000976562" y="12.9998" width="32" height="1.54334" rx="0.771672" fill="#E3B873"/>
<rect x="82.001" y="12.9998" width="32" height="1.54334" rx="0.771672" fill="#E3B873"/>
<path d="M67.406 21.1434C66.8244 20.7342 66.1533 20.5144 65.4754 20.4785C62.9204 18.8054 61.2467 17.5495 60.2695 16.5724L57.2679 13.5707L59.0894 11.5318C59.4346 11.7267 59.8054 11.8551 60.1762 11.908C60.4561 11.9546 60.6426 11.9546 60.8293 11.9546C61.2024 11.9546 61.2957 11.9546 61.6688 12.2811C61.4823 12.4211 61.389 12.6543 61.389 12.8875C61.389 13.1207 61.4823 13.4006 61.6688 13.5871L63.3014 15.2197C63.5346 15.4995 63.9077 15.6394 64.2809 15.6394C64.654 15.6394 65.0271 15.4995 65.2604 15.173L68.5721 11.8613C68.8519 11.6281 68.9919 11.255 68.9919 10.8818C68.9919 10.5087 68.8519 10.1822 68.5721 9.90232L66.9395 8.26979C66.753 8.08324 66.5198 7.98993 66.2865 7.98993C66.0533 7.98993 65.8201 8.12986 65.6335 8.26979C65.2603 7.94331 65.2603 7.85 65.2603 7.47684C65.2603 7.29028 65.2603 7.05705 65.167 6.77719C65.0737 6.12416 64.7472 5.4712 64.2341 4.9581L62.555 3.27894C61.5755 2.29944 61.1091 1.83302 59.8497 1.2733C57.1444 0.013935 54.3924 0.24717 50.3811 2.06626C50.1479 2.15956 50.0546 2.34612 50.1012 2.57935C50.1479 2.81258 50.3345 2.95251 50.5677 2.95251H51.174C53.2263 2.95251 54.2991 2.95251 56.1648 4.81823C56.9818 5.63518 57.0053 6.88782 56.2734 7.80944C56.1747 7.82431 56.0996 7.86859 56.0249 7.94331L53.953 10.2559L52.3867 8.68963C50.6653 6.96817 49.4544 5.33946 48.5225 3.5259C48.4736 2.60821 48.1054 1.74961 47.4426 1.0868C46.6497 0.293904 45.5302 -0.0792603 44.4108 0.0140445C44.2709 0.0606695 44.1309 0.153974 44.0843 0.247279C43.991 0.387209 43.991 0.573763 44.0843 0.713693L45.3903 3.04587C45.1104 3.65222 44.4574 4.02538 43.8045 3.97876L42.4518 1.73983C42.4052 1.5999 42.2185 1.50659 42.0786 1.50659C41.9387 1.45997 41.7988 1.55322 41.7055 1.69315C40.586 3.3723 41.0058 5.61118 42.685 6.77724C43.2635 7.19047 43.9152 7.42026 44.5753 7.46738C44.5827 7.4705 44.5896 7.47432 44.5973 7.47689C46.4164 8.40977 48.0489 9.62246 49.7747 11.3483L51.4806 13.0154L41.5656 24.082C41.1924 24.4551 41.0059 24.9682 41.0059 25.4813C41.0059 25.9944 41.1924 26.4608 41.5656 26.8339L42.2186 27.487C42.5918 27.8134 43.0582 28 43.5246 28C43.991 28 44.5041 27.8135 44.8773 27.4403L54.781 16.3546L57.6575 19.2311C58.6361 20.2097 59.894 21.9332 61.5708 24.4481C61.631 25.3458 61.9983 26.1839 62.6483 26.8339C63.348 27.5336 64.2809 27.9067 65.2604 27.9067C65.4003 27.9067 65.5402 27.9067 65.6335 27.9067C65.7735 27.9067 65.9134 27.8134 66.0067 27.6735C66.1 27.5336 66.1 27.347 66.0067 27.2071L64.654 24.9216C64.9805 24.3153 65.5869 23.9421 66.2866 23.9887L67.5926 26.2276C67.6392 26.3675 67.8258 26.4608 67.9657 26.4608C68.1523 26.4142 68.2922 26.3675 68.3855 26.2276C69.5049 24.5484 69.0384 22.3095 67.406 21.1434ZM56.7713 4.07201C55.2787 2.62608 54.1593 2.15962 52.8999 2.01969C55.5585 1.18011 57.5176 1.22673 59.4766 2.11299C60.596 2.57941 60.9692 2.95257 61.9487 3.93208L63.6278 5.61123C64.001 5.9844 64.2342 6.45081 64.2809 6.91723C64.3275 7.15046 64.3275 7.33702 64.3275 7.47695C64.3275 7.99004 64.3741 8.36315 64.9338 8.92287C65.1204 9.10942 65.4003 9.20273 65.6335 9.20273C65.9133 9.20273 66.1466 9.10942 66.2865 8.92287L67.919 10.5554C68.0124 10.6487 68.059 10.742 68.059 10.8819C68.059 11.0218 68.0124 11.1151 67.919 11.2084L64.6074 14.5201C64.4208 14.7066 64.1409 14.7066 63.9543 14.5201L62.3218 12.8875C62.5084 12.7476 62.6017 12.5144 62.555 12.2345C62.555 12.0013 62.4617 11.7214 62.2752 11.5349C61.7155 10.9751 61.3423 10.9285 60.8293 10.9285C60.6893 10.9285 60.5028 10.9285 60.2695 10.8819C59.7564 10.8353 59.3367 10.602 58.9635 10.2289L56.9579 8.22322C57.984 6.96391 57.8907 5.19145 56.7713 4.07201ZM42.1253 2.95257L43.1048 4.63173C43.1981 4.77166 43.338 4.86496 43.478 4.86496H43.7112C44.784 4.91159 45.7635 4.35187 46.2299 3.41904L46.3232 3.1858C46.4165 3.04587 46.4165 2.90594 46.3232 2.76601L45.2971 0.993553C45.8568 1.08686 46.3699 1.36672 46.7897 1.78651C47.2706 2.30747 47.5785 2.96634 47.5967 3.67408C47.5876 3.70999 47.5826 3.74864 47.5826 3.7922C47.5826 4.00822 47.5565 4.21893 47.5082 4.42205C47.3323 5.09743 46.9103 5.68628 46.3232 6.07776C45.3903 6.6841 44.1309 6.6841 43.1981 6.03113C42.2186 5.33137 41.7988 4.07201 42.1253 2.95257ZM50.4278 10.6953C49.0285 9.24941 47.6292 8.12997 46.1366 7.24371C46.3698 7.15041 46.6497 7.01048 46.8829 6.87055C47.5825 6.40413 48.0489 5.79773 48.3288 5.05146C49.215 6.54406 50.3344 7.94336 51.7337 9.34266L53.3358 10.9447L52.0794 12.347L50.4278 10.6953ZM44.2242 26.7406C43.8511 27.1138 43.2447 27.1604 42.8716 26.7873L42.2185 26.1809C42.032 25.9944 41.9387 25.7611 41.9387 25.5279C41.9387 25.248 42.032 25.0148 42.2652 24.7816L42.5293 24.4861L43.1981 25.1548C43.2914 25.2481 43.3846 25.2947 43.5245 25.2947C43.6645 25.2947 43.7578 25.2481 43.851 25.1548C44.0376 24.9682 44.0376 24.6884 43.851 24.5018L43.1457 23.7964L43.7621 23.1068L44.504 23.8487C44.5974 23.942 44.6906 23.9887 44.8305 23.9887C44.9705 23.9887 45.0638 23.942 45.157 23.8487C45.3436 23.6622 45.3436 23.3823 45.157 23.1957L44.3785 22.4172L56.3761 8.99415L58.3351 10.9532L56.4103 13.1067C56.3553 13.13 56.3066 13.1656 56.2582 13.2141L54.3925 15.313C54.3392 15.3663 54.3017 15.4273 54.2788 15.4914L44.2242 26.7406ZM55.4192 15.6401L56.6956 14.2113L59.7098 17.2254C60.5493 18.1116 61.9953 19.231 64.0942 20.6303C63.8144 20.7236 63.5345 20.8636 63.2546 21.0501C62.6759 21.4118 62.2661 21.914 61.9805 22.4691C61.9763 22.477 61.9724 22.4851 61.9683 22.4931C61.9513 22.5265 61.9348 22.5601 61.9187 22.5938C61.8957 22.6417 61.8739 22.69 61.8529 22.7389C61.8386 22.772 61.8243 22.805 61.8108 22.8383C61.8089 22.8431 61.8071 22.848 61.8052 22.8528C61.7905 22.8893 61.7759 22.9258 61.7621 22.9625C61.4971 22.5739 61.2423 22.2072 60.9971 21.8618L61.6222 21.2367C61.8087 21.0502 61.8087 20.7703 61.6222 20.5837C61.4356 20.3972 61.1557 20.3972 60.9691 20.5837L60.4492 21.1037C60.2553 20.8407 60.0681 20.5926 59.8875 20.3593L60.3162 19.9307C60.5027 19.7441 60.5027 19.4643 60.3162 19.2777C60.1296 19.0911 59.8497 19.0911 59.6631 19.2777L59.3071 19.6337C58.9643 19.2206 58.648 18.8689 58.3571 18.578L55.4192 15.6401ZM67.919 24.9682L66.9395 23.289C66.8462 23.1491 66.7062 23.0558 66.5663 23.0558H66.3331C65.2603 22.9625 64.2808 23.5689 63.8144 24.5017L63.721 24.7349C63.6277 24.8749 63.6277 25.0148 63.721 25.1547L64.7472 26.9272C64.1875 26.8339 63.6744 26.554 63.2546 26.1342C62.7828 25.6231 62.4779 24.9793 62.4492 24.2869C62.4571 24.2528 62.4616 24.2162 62.4616 24.1752C62.4616 23.5843 62.6492 23.0311 62.9761 22.5625C63.177 22.283 63.4282 22.0383 63.721 21.8431C64.1874 21.5166 64.7005 21.3767 65.2602 21.3767C65.8199 21.3767 66.3797 21.5632 66.8461 21.8898C67.8257 22.5894 68.2455 23.8487 67.919 24.9682Z" fill="#E3B873"/>
</svg>
